<?xml version="1.0" standalone="no"?>
<!DOCTYPE svg PUBLIC "-//W3C//DTD SVG 20010904//EN"
 "http://www.w3.org/TR/2001/REC-SVG-20010904/DTD/svg10.dtd">
<svg version="1.0" xmlns="http://www.w3.org/2000/svg"
 width="260.000000pt" height="260.000000pt" viewBox="0 0 260.000000 260.000000"
 preserveAspectRatio="xMidYMid meet">
<metadata>
Created by potrace 1.11, written by Peter Selinger 2001-2013
</metadata>
<g transform="translate(0.000000,260.000000) scale(0.100000,-0.100000)"
fill="#000000" stroke="none">
<path d="M720 2533 c1 -66 31 -191 61 -252 43 -87 141 -185 230 -228 66 -32
169 -63 208 -63 12 0 21 -4 21 -10 0 -5 -10 -10 -22 -10 -60 0 -173 -76 -229
-153 l-27 -37 -36 48 c-89 121 -257 179 -402 137 -116 -33 -194 -101 -248
-215 -27 -56 -31 -76 -31 -150 0 -98 19 -162 72 -234 67 -92 192 -156 308
-156 l53 0 -25 -61 c-21 -53 -24 -74 -21 -148 4 -102 33 -174 98 -245 46 -49
142 -103 202 -112 21 -4 38 -8 38 -11 0 -2 -9 -21 -20 -42 -11 -22 -23 -64
-28 -95 -35 -219 125 -422 349 -443 150 -14 301 73 373 216 48 94 50 234 6
322 -11 21 -20 40 -20 42 0 3 19 7 42 11 103 17 216 108 266 214 24 50 27 69
27 162 0 90 -3 111 -23 148 l-22 42 54 0 c117 0 242 63 309 156 53 72 72 136
72 234 0 74 -4 94 -31 150 -54 114 -132 182 -248 215 -147 42 -325 -20 -411
-144 l-27 -41 -28 38 c-52 72 -168 152 -222 152 -9 0 -19 4 -22 9 -3 5 18 12
47 15 28 4 81 19 117 33 210 84 320 233 345 467 l7 66 -38 0 c-63 0 -173 -27
-241 -59 -76 -36 -161 -114 -208 -190 -37 -61 -85 -194 -85 -235 0 -14 -4 -26
-10 -26 -5 0 -10 10 -10 23 0 81 -76 241 -154 324 -88 95 -245 162 -378 163
-35 0 -38 -2 -38 -27z m-3 -770 c21 -11 52 -39 68 -62 40 -57 43 -145 6 -204
-67 -108 -212 -126 -300 -38 -125 125 -29 340 146 327 23 -2 59 -12 80 -23z
m636 16 c47 -13 106 -63 123 -106 17 -39 18 -111 3 -150 -24 -64 -109 -123
-179 -123 -70 0 -155 59 -179 123 -15 39 -14 111 3 150 18 43 65 85 112 102
48 17 68 18 117 4z m681 -1 c57 -17 110 -74 125 -133 43 -173 -143 -307 -290
-210 -101 66 -116 208 -31 293 57 57 120 73 196 50z m-949 -587 c47 -22 89
-64 104 -104 15 -39 14 -111 -3 -150 -24 -59 -111 -117 -176 -117 -34 0 -91
22 -120 47 -78 65 -93 186 -34 260 36 46 106 83 154 83 19 0 53 -9 75 -19z
m573 4 c136 -57 164 -234 52 -328 -29 -25 -86 -47 -120 -47 -65 0 -152 58
-176 117 -17 39 -18 111 -3 150 24 63 109 122 177 123 18 0 49 -7 70 -15z
m-283 -584 c189 -85 131 -366 -75 -366 -161 0 -252 193 -147 312 60 69 145 89
222 54z"/>
</g>
</svg>
