<?xml version="1.0" encoding="UTF-8" standalone="no"?>
<!-- Created with Inkscape (http://www.inkscape.org/) -->

<svg
   xmlns:dc="http://purl.org/dc/elements/1.1/"
   xmlns:cc="http://creativecommons.org/ns#"
   xmlns:rdf="http://www.w3.org/1999/02/22-rdf-syntax-ns#"
   xmlns:svg="http://www.w3.org/2000/svg"
   xmlns="http://www.w3.org/2000/svg"
   xmlns:sodipodi="http://sodipodi.sourceforge.net/DTD/sodipodi-0.dtd"
   xmlns:inkscape="http://www.inkscape.org/namespaces/inkscape"
   width="210mm"
   height="297mm"
   viewBox="0 0 210 297"
   version="1.1"
   id="svg8"
   inkscape:version="0.92.1 r15371"
   sodipodi:docname="logo.svg">
  <defs
     id="defs2" />
  <sodipodi:namedview
     id="base"
     pagecolor="#ffffff"
     bordercolor="#666666"
     borderopacity="1.0"
     inkscape:pageopacity="0.0"
     inkscape:pageshadow="2"
     inkscape:zoom="3.959798"
     inkscape:cx="246.92334"
     inkscape:cy="578.7134"
     inkscape:document-units="mm"
     inkscape:current-layer="root"
     showgrid="false"
     inkscape:window-width="2048"
     inkscape:window-height="1099"
     inkscape:window-x="-8"
     inkscape:window-y="-8"
     inkscape:window-maximized="1" />
  <metadata
     id="metadata5">
    <rdf:RDF>
      <cc:Work
         rdf:about="">
        <dc:format>image/svg+xml</dc:format>
        <dc:type
           rdf:resource="http://purl.org/dc/dcmitype/StillImage" />
        <dc:title></dc:title>
      </cc:Work>
    </rdf:RDF>
  </metadata>
  <g
     inkscape:label="Layer 1"
     inkscape:groupmode="layer"
     id="layer1">
    <g
       id="root"
       transform="matrix(0.26458333,0,0,0.26458333,44.354833,116.27343)"
       style="fill:none;fill-rule:evenodd;stroke:none;stroke-width:1">
      <rect
         height="56"
         width="171.52666"
         y="52"
         x="8"
         id="shape.secondary"
         style="fill:#f5e7e7;stroke-width:1.09140158;fill-opacity:1" />
      <rect
         display="none"
         height="36"
         width="36"
         y="62"
         x="18"
         id="icon.primary"
         style="display:none;fill:#53435b" />
      <svg
         height="36"
         width="36"
         y="62"
         x="18"
         id="svg_icon.primary"
         version="1.1"
         viewBox="0 0 32 32"
         style="fill:#e65100;fill-opacity:1">
        <g
           id="surface1"
           style="fill:#e65100;fill-opacity:1">
          <path
             id="path4504"
             d="m 10,3 c 0,6.042969 6,6 6,6 -1.515625,0 -2.820312,0.871094 -3.5,2.125 C 11.820313,9.871094 10.515625,9 9,9 6.800781,9 5,10.800781 5,13 5,15.199219 6.800781,17 9,17 9.199219,17 9.402344,16.96484 9.59375,16.9375 9.222656,17.542969 9,18.242188 9,19 c 0,2.058594 1.585938,3.730469 3.59375,3.9375 C 12.222656,23.542969 12,24.242188 12,25 c 0,2.199219 1.800781,4 4,4 2.199219,0 4,-1.800781 4,-4 0,-0.757812 -0.222656,-1.457031 -0.59375,-2.0625 C 21.414063,22.730469 23,21.058594 23,19 23,18.257813 22.792969,17.566406 22.4375,16.96875 22.621094,16.996094 22.8125,17 23,17 25.199219,17 27,15.199219 27,13 27,10.800781 25.199219,9 23,9 21.484375,9 20.179688,9.871094 19.5,11.125 18.859375,9.941406 17.660156,9.089844 16.25,9 17.398438,8.925781 22,8.285156 22,3 16.75,3 16.082031,7.601563 16,8.75 15.917969,7.601563 15.25,3 10,3 Z m -1,8 c 1.117188,0 2,0.882813 2,2 0,1.117188 -0.882812,2 -2,2 -1.117187,0 -2,-0.882812 -2,-2 0,-1.117187 0.882813,-2 2,-2 z m 7,0 c 1.117188,0 2,0.882813 2,2 0,1.117188 -0.882812,2 -2,2 -1.117187,0 -2,-0.882812 -2,-2 0,-1.117187 0.882813,-2 2,-2 z m 7,0 c 1.117188,0 2,0.882813 2,2 0,1.117188 -0.882812,2 -2,2 -1.117187,0 -2,-0.882812 -2,-2 0,-1.117187 0.882813,-2 2,-2 z m -10.5,3.875 c 0.03125,0.05469 0.0625,0.101563 0.09375,0.15625 -0.0625,0.0078 -0.125,0.02344 -0.1875,0.03125 0.03516,-0.05859 0.05859,-0.125 0.09375,-0.1875 z m 7,0 c 0.03516,0.06641 0.08594,0.121094 0.125,0.1875 C 19.55469,15.05078 19.480469,15.03906 19.40625,15.03125 19.4375,14.976563 19.46875,14.929688 19.5,14.875 Z M 13,17 c 1.117188,0 2,0.882813 2,2 0,1.117188 -0.882812,2 -2,2 -1.117187,0 -2,-0.882812 -2,-2 0,-1.117187 0.882813,-2 2,-2 z m 6,0 c 1.117188,0 2,0.882813 2,2 0,1.117188 -0.882812,2 -2,2 -1.117187,0 -2,-0.882812 -2,-2 0,-1.117187 0.882813,-2 2,-2 z m -3,6 c 1.117188,0 2,0.882813 2,2 0,1.117188 -0.882812,2 -2,2 -1.117187,0 -2,-0.882812 -2,-2 0,-1.117187 0.882813,-2 2,-2 z"
             style="fill:#e65100;fill-opacity:1"
             inkscape:connector-curvature="0" />
        </g>
      </svg>
      <text
         xml:space="preserve"
         style="font-style:normal;font-weight:normal;font-size:35.42844391px;line-height:1.25;font-family:sans-serif;letter-spacing:0px;word-spacing:0px;fill:#000000;fill-opacity:1;stroke:none;stroke-width:0.94897622"
         x="54.415398"
         y="81.430054"
         id="text4529"
         transform="scale(0.94897622,1.0537672)"><tspan
           sodipodi:role="line"
           id="tspan4527"
           x="54.415398"
           y="81.430054"
           style="font-style:normal;font-variant:normal;font-weight:normal;font-stretch:normal;font-size:17.71422195px;font-family:Centaur;-inkscape-font-specification:'Centaur, Normal';font-variant-ligatures:normal;font-variant-caps:normal;font-variant-numeric:normal;font-feature-settings:normal;text-align:start;writing-mode:lr-tb;text-anchor:start;fill:#e65100;fill-opacity:1;stroke-width:0.94897622">Open Meal Planner</tspan></text>
    </g>
  </g>
</svg>
